<?xml version="1.0" standalone="no"?>
<!DOCTYPE svg PUBLIC "-//W3C//DTD SVG 20010904//EN"
 "http://www.w3.org/TR/2001/REC-SVG-20010904/DTD/svg10.dtd">
<svg version="1.0" xmlns="http://www.w3.org/2000/svg"
 width="512.000000pt" height="512.000000pt" viewBox="0 0 512.000000 512.000000"
 preserveAspectRatio="xMidYMid meet">
<metadata>
Created by potrace 1.14, written by Peter Selinger 2001-2017
</metadata>
<g transform="translate(0.000000,512.000000) scale(0.100000,-0.100000)"
fill="#000000" stroke="none">
<path d="M0 2560 l0 -2560 2560 0 2560 0 0 2560 0 2560 -2560 0 -2560 0 0
-2560z m4162 1379 c44 -23 45 -38 51 -594 3 -291 10 -654 16 -805 13 -346 29
-851 37 -1172 l7 -247 -30 -30 c-38 -37 -73 -47 -109 -29 -55 27 -67 57 -76
195 -19 291 -38 866 -50 1461 -7 347 -16 632 -21 632 -23 0 -200 -437 -286
-705 -28 -88 -69 -227 -91 -310 -47 -171 -62 -194 -131 -202 -69 -8 -83 11
-191 239 -53 112 -122 257 -153 323 -32 66 -74 156 -95 200 -21 44 -66 139
-100 210 -34 72 -69 147 -77 168 -29 70 -35 53 -53 -143 -6 -63 -15 -155 -20
-205 -5 -49 -14 -137 -20 -195 -6 -58 -15 -145 -21 -195 -8 -79 -19 -188 -59
-597 -11 -105 -25 -248 -40 -393 -5 -49 -16 -162 -25 -250 -19 -191 -27 -220
-69 -246 -47 -29 -82 -25 -122 15 -26 26 -34 42 -34 71 0 32 20 245 60 640 6
55 15 145 20 200 5 55 14 145 20 200 19 192 51 511 60 610 13 140 28 293 40
405 5 52 16 167 25 255 30 305 32 325 49 350 28 43 89 57 142 33 32 -15 59
-70 534 -1070 47 -98 89 -178 95 -178 5 0 37 82 70 183 103 313 216 585 382
918 108 216 132 255 167 269 22 9 69 4 98 -11z m-2626 -34 c159 -40 253 -121
341 -290 49 -96 113 -278 115 -328 3 -71 -73 -132 -132 -107 -47 19 -67 50
-109 167 -52 146 -95 227 -152 285 -85 85 -160 99 -263 48 -91 -46 -121 -79
-177 -193 -68 -140 -92 -256 -73 -359 16 -91 42 -154 99 -234 72 -101 131
-142 390 -277 132 -68 258 -135 280 -148 172 -100 298 -254 336 -409 23 -91
16 -253 -14 -347 -68 -208 -218 -402 -414 -534 -129 -87 -251 -132 -415 -154
-222 -30 -407 32 -548 182 -113 120 -173 254 -173 388 -1 100 16 161 55 197
82 76 203 -10 169 -122 -14 -48 -14 -85 1 -152 10 -45 22 -63 78 -119 112
-114 226 -156 395 -146 227 14 413 131 559 352 77 116 110 214 110 329 0 87
-2 94 -37 153 -69 114 -149 175 -398 298 -337 167 -370 186 -460 270 -165 153
-229 295 -229 507 0 163 49 354 121 474 42 69 157 195 206 225 63 39 146 69
194 69 26 0 91 -11 145 -25z"/>
</g>
</svg>
